<svg width="30" height="30" viewBox="0 0 30 30" fill="none" xmlns="http://www.w3.org/2000/svg">
    <path fill-rule="evenodd" clip-rule="evenodd" d="M15 1C22.7268 1 29 7.27317 29 15C29 22.7268 22.7268 29 15 29C7.27317 29 1 22.7268 1 15C1 7.27317 7.27317 1 15 1ZM15 2.16667C22.0828 2.16667 27.8333 7.91717 27.8333 15C27.8333 22.0828 22.0828 27.8333 15 27.8333C7.91717 27.8333 2.16667 22.0828 2.16667 15C2.16667 7.91717 7.91717 2.16667 15 2.16667ZM11.5 8.8785L19.0133 15L11.5 21.1402L12.291 22L20.8333 15L12.2758 8L11.5 8.8785V8.8785Z" fill="white" stroke="white"/>
    </svg>
    