<svg width="31" height="29" viewBox="0 0 31 29" fill="none" xmlns="http://www.w3.org/2000/svg">
    <path fill-rule="evenodd" clip-rule="evenodd" d="M19.125 27.5833L7.87663 20.3333H1V8.25H7.87663L19.125 1V27.5833ZM8.25 9.44746V19.1359L17.9167 25.3673V3.21608L8.25 9.44746ZM25.4422 4.3495C28.254 6.75288 30 10.3211 30 14.2929C30 18.2659 28.254 21.8341 25.4446 24.2362L24.5891 23.3808C27.1701 21.2166 28.7917 17.942 28.7917 14.2917C28.7917 10.6413 27.1701 7.36671 24.5891 5.20258L25.4422 4.3495ZM21.903 7.88871C23.7408 9.40758 24.8948 11.7155 24.8948 14.2917C24.8948 16.8678 23.7408 19.1758 21.903 20.6946L21.0499 19.8415C22.6582 18.5571 23.6865 16.544 23.6865 14.2941C23.6865 12.043 22.6582 10.0299 21.0475 8.74421L21.903 7.88871ZM7.04167 9.45833H2.20833V19.125H7.04167V9.45833Z" fill="white" stroke="white"/>
    </svg>
    